<svg width="24" height="24" viewBox="0 0 24 24" fill="none" xmlns="http://www.w3.org/2000/svg">
<path d="M10.2361 3.25C9.19445 3.25 8.24222 3.83851 7.77639 4.77016L7.38197 5.55902C7.17023 5.9825 6.7374 6.25 6.26393 6.25H5C3.48122 6.25 2.25 7.48122 2.25 9V18C2.25 19.5188 3.48122 20.75 5 20.75H19C20.5188 20.75 21.75 19.5188 21.75 18V9C21.75 7.48122 20.5188 6.25 19 6.25H17.7361C17.2626 6.25 16.8298 5.9825 16.618 5.55902L16.2236 4.77016C15.7578 3.83851 14.8056 3.25 13.7639 3.25H10.2361Z" fill="#005C3A"/>
<path fill-rule="evenodd" clip-rule="evenodd" d="M12 7.25C12.4142 7.25 12.75 7.58579 12.75 8V16C12.75 16.4142 12.4142 16.75 12 16.75C11.5858 16.75 11.25 16.4142 11.25 16V8C11.25 7.58579 11.5858 7.25 12 7.25Z" fill="#ECEFF1"/>
<path fill-rule="evenodd" clip-rule="evenodd" d="M7.25 12C7.25 11.5858 7.58579 11.25 8 11.25H16C16.4142 11.25 16.75 11.5858 16.75 12C16.75 12.4142 16.4142 12.75 16 12.75H8C7.58579 12.75 7.25 12.4142 7.25 12Z" fill="#ECEFF1"/>
</svg>
