<svg  viewBox="0 0 13 10" fill="none" xmlns="http://www.w3.org/2000/svg">
<path d="M6.00758 2.38949C7.6723 2.38949 9.02181 3.68358 9.02181 5.27993C9.02181 6.87628 7.67228 8.17037 6.00757 8.17037C4.34286 8.17037 2.99335 6.87628 2.99335 5.27993C2.99544 3.68439 4.34371 2.39148 6.00739 2.38949H6.00758ZM6.00758 7.16849C7.09527 7.16849 7.97702 6.32296 7.97702 5.27994C7.97702 4.23692 7.09528 3.39139 6.00759 3.39139C4.9199 3.39139 4.03816 4.23691 4.03816 5.27994C4.03933 6.3225 4.92037 7.16736 6.00748 7.1685H6.00759L6.00758 7.16849ZM4.23405 0H7.7806L8.77629 1.4327H10.495C11.3342 1.43354 12.0143 2.0857 12.0151 2.89036V8.15333C12.0151 8.55564 11.8457 8.92 11.5716 9.18438L11.5716 9.18431C11.299 9.44703 10.9217 9.60962 10.5047 9.60962H1.51044C1.09349 9.60962 0.716145 9.44703 0.443581 9.18437L0.443522 9.18431C0.169423 8.91998 0 8.55562 0 8.1533V8.14861V8.14884V2.89044C0.000900196 2.0857 0.680978 1.43356 1.5201 1.4327H3.23886L4.23405 0ZM7.22214 1.00187H4.79298L3.79523 2.43458H1.52019C1.25776 2.43486 1.04511 2.63879 1.04481 2.89041V8.15371C1.04481 8.27869 1.0975 8.39189 1.18273 8.47397L1.18271 8.47395C1.26735 8.55564 1.38454 8.6062 1.51407 8.6062H10.5002C10.7598 8.6062 10.9703 8.40435 10.9703 8.15535V2.89043C10.97 2.63878 10.7574 2.43486 10.495 2.43457H8.21992L7.22214 1.00187ZM2.53886 1.93363H1.49407V0.976817H2.53886L2.53886 1.93363ZM10.495 3.87229H9.49719V2.8704H10.495L10.495 3.87229Z" fill="#B8860B"/>
</svg>
